if (_typeface_js && _typeface_js.loadFace) _typeface_js.loadFace({"glyphs":{"S":{"x_min":0,"x_max":1117.71875,"ha":1228,"o":"m 18 1120 l 1098 1120 q 1117 1101 1117 1120 l 1117 732 q 1044 640 1117 688 q 1014 632 1023 632 l 1006 632 q 946 689 985 632 q 870 735 909 735 q 746 577 746 691 l 746 548 q 870 385 746 428 l 876 385 q 982 477 917 385 q 1006 488 996 488 l 1022 488 q 1104 425 1055 488 q 1117 387 1117 402 l 1117 18 q 1098 0 1117 0 l 735 0 q 637 78 684 0 q 632 100 632 88 l 632 113 q 708 189 632 135 q 735 244 735 227 q 670 344 735 279 q 558 374 634 374 l 553 374 q 406 295 452 374 q 385 244 385 267 q 474 138 385 202 q 488 111 488 122 q 398 2 488 44 q 377 0 388 0 l 21 0 q 0 21 0 0 l 0 385 q 73 480 0 434 q 100 488 87 488 l 113 488 q 192 406 132 488 q 244 385 229 385 q 363 480 295 385 q 374 564 374 526 q 246 735 374 694 l 244 735 q 132 640 200 735 q 111 632 119 632 l 103 632 q 5 710 53 632 q 0 735 0 728 l 0 1101 q 18 1120 0 1120 "},"¦":{"x_min":0,"x_max":0,"ha":688},"/":{"x_min":0,"x_max":0,"ha":386},"y":{"x_min":0,"x_max":1492.09375,"ha":1616,"o":"m 393 1117 l 759 1117 q 857 1036 809 1117 l 859 1022 l 859 1003 q 786 930 859 986 q 759 881 761 904 l 759 870 q 832 767 759 828 q 933 743 869 743 q 1066 797 1022 743 q 1106 873 1105 839 l 1106 876 q 1017 979 1106 920 q 1003 1011 1003 999 q 1036 1079 1003 1038 q 1106 1117 1080 1117 l 1473 1117 q 1492 1098 1492 1117 l 1492 729 q 1416 637 1492 683 q 1378 629 1393 629 q 1291 718 1365 629 q 1247 732 1262 732 q 1155 675 1208 732 q 1117 558 1117 638 q 1171 425 1117 469 q 1247 385 1218 385 q 1342 461 1293 385 q 1383 488 1365 488 l 1386 488 q 1483 415 1436 488 q 1492 387 1492 401 l 1492 18 q 1473 0 1492 0 l 1101 0 q 1028 48 1074 0 q 1003 111 1003 80 q 1085 192 1003 129 q 1106 244 1106 219 q 1014 360 1106 299 q 930 374 978 374 q 775 287 822 374 q 759 246 759 265 l 759 241 q 851 132 759 200 q 859 113 859 122 l 859 97 q 789 8 859 56 q 759 0 768 0 l 393 0 q 374 18 374 0 l 374 371 q 311 447 374 411 l 306 447 l 241 377 q 170 347 210 347 l 162 347 q 16 455 88 347 q 0 539 0 488 l 0 577 q 105 751 0 696 q 154 770 132 770 l 179 770 q 295 678 233 770 q 309 670 304 670 q 374 754 374 701 l 374 1098 q 393 1117 374 1117 "},"≈":{"x_min":0,"x_max":0,"ha":688},"Á":{"x_min":0,"x_max":0,"ha":1044},"g":{"x_min":0,"x_max":1120.421875,"ha":1228,"o":"m 537 1866 l 583 1866 q 729 1795 676 1866 q 773 1700 773 1743 l 773 1698 q 678 1570 773 1631 q 670 1562 678 1566 q 759 1492 699 1492 l 1101 1492 q 1120 1473 1120 1492 l 1120 393 q 1101 374 1120 374 l 746 374 q 670 306 704 374 q 765 203 765 232 q 773 168 773 195 l 773 165 q 689 32 773 101 q 567 0 651 0 l 553 0 q 409 51 455 0 q 347 170 347 113 q 450 303 347 233 l 450 309 q 374 374 415 374 l 18 374 q 0 393 0 374 l 0 748 q 89 859 0 816 l 105 862 q 181 794 134 862 q 244 759 215 759 q 358 843 295 759 q 374 919 374 872 l 374 944 q 309 1077 374 1032 q 246 1109 288 1098 q 143 1022 200 1109 q 108 1003 122 1003 q 5 1087 52 1003 q 0 1112 0 1105 l 0 1473 q 18 1492 0 1492 l 358 1492 q 450 1562 423 1492 q 349 1684 349 1635 q 347 1700 347 1688 q 444 1844 347 1768 q 537 1866 480 1866 "},"²":{"x_min":0,"x_max":0,"ha":688},"–":{"x_min":0,"x_max":0,"ha":751},"ë":{"x_min":0,"x_max":0,"ha":617},"Î":{"x_min":0,"x_max":0,"ha":446},"e":{"x_min":0,"x_max":1494.796875,"ha":1547,"o":"m 18 1494 l 390 1494 q 474 1429 427 1494 q 488 1391 488 1409 l 488 1383 q 409 1304 488 1360 q 385 1247 385 1268 q 444 1155 387 1211 q 561 1120 480 1120 q 702 1185 659 1120 q 735 1250 728 1213 q 648 1353 735 1292 q 632 1383 632 1371 l 632 1386 q 716 1492 632 1448 q 740 1494 731 1494 l 1098 1494 q 1120 1473 1120 1494 l 1120 1115 q 1174 1049 1120 1086 q 1188 1044 1183 1044 q 1283 1136 1255 1136 q 1323 1147 1283 1144 l 1329 1147 q 1475 1039 1404 1147 q 1494 935 1494 1001 q 1429 773 1494 821 q 1321 721 1377 721 q 1190 822 1258 721 l 1185 824 q 1125 773 1166 824 l 1120 754 l 1120 396 q 1098 374 1120 374 l 743 374 q 672 314 706 374 q 670 306 670 309 q 773 170 773 233 l 773 165 q 672 21 773 99 q 558 0 630 0 q 382 84 435 0 q 347 168 347 128 q 439 295 347 236 l 450 309 q 377 374 415 374 l 21 374 q 0 396 0 374 l 0 751 q 86 859 0 817 q 97 862 91 862 l 111 862 q 181 794 133 862 q 244 759 218 759 q 363 851 295 759 q 374 935 374 889 l 374 941 q 252 1109 374 1064 l 244 1109 q 138 1020 202 1109 q 111 1006 122 1006 l 97 1006 q 8 1079 58 1006 q 0 1117 0 1100 l 0 1475 q 18 1494 0 1494 "},"Ã":{"x_min":0,"x_max":0,"ha":1044},"J":{"x_min":0,"x_max":1494.796875,"ha":1573,"o":"m 18 1492 l 393 1492 q 474 1429 425 1492 q 488 1391 488 1405 l 488 1380 q 406 1299 488 1362 q 385 1247 388 1275 q 474 1131 385 1199 q 561 1117 514 1120 q 735 1239 686 1117 l 735 1247 q 645 1353 735 1293 q 632 1380 632 1369 l 632 1397 q 705 1486 632 1433 q 727 1492 724 1492 l 1101 1492 q 1120 1473 1120 1492 l 1120 1117 q 1185 1044 1120 1077 l 1188 1044 q 1307 1144 1264 1144 l 1337 1144 q 1454 1071 1384 1144 q 1494 930 1494 1030 q 1391 743 1494 797 q 1337 721 1357 721 l 1315 721 q 1193 819 1260 721 l 1188 822 q 1120 759 1155 822 l 1120 393 q 1101 374 1120 374 l 756 374 q 670 303 697 374 q 765 203 765 236 q 773 168 773 195 l 773 165 q 680 27 773 98 q 567 0 644 0 l 553 0 q 382 81 436 0 q 347 165 347 128 l 347 168 q 439 295 347 235 q 450 306 439 299 q 363 374 419 374 l 18 374 q 0 393 0 374 l 0 1473 q 18 1492 0 1492 "},"»":{"x_min":0,"x_max":0,"ha":640},"∆":{"x_min":0,"x_max":0,"ha":733},"©":{"x_min":0,"x_max":0,"ha":1135},"˘":{"x_min":0,"x_max":0,"ha":695},"≥":{"x_min":0,"x_max":0,"ha":688},"ò":{"x_min":0,"x_max":0,"ha":685},"^":{"x_min":0,"x_max":0,"ha":688},"«":{"x_min":0,"x_max":0,"ha":640},"D":{"x_min":0,"x_max":1494.796875,"ha":1542,"o":"m 8 1489 l 1112 1489 q 1120 1473 1120 1486 l 1120 1115 q 1185 1041 1120 1080 l 1188 1041 q 1321 1144 1260 1144 l 1329 1144 q 1462 1060 1393 1144 q 1494 933 1494 1022 q 1424 765 1494 814 q 1323 718 1370 718 q 1193 819 1260 718 l 1188 822 q 1125 767 1162 822 q 1120 746 1120 757 l 1120 393 q 1096 371 1120 371 l 740 371 q 675 317 712 371 q 670 303 670 308 q 773 168 773 234 l 773 162 q 686 29 773 99 q 583 0 649 0 l 539 0 q 415 46 457 0 q 347 168 347 110 q 442 295 347 233 q 450 309 450 304 q 382 371 415 371 l 24 371 q 0 396 0 371 l 0 1473 q 8 1489 2 1489 "},"∙":{"x_min":0,"x_max":0,"ha":345},"ÿ":{"x_min":0,"x_max":0,"ha":589},"í":{"x_min":0,"x_max":0,"ha":349},"ˆ":{"x_min":0,"x_max":0,"ha":695},"w":{"x_min":0,"x_max":1489.375,"ha":1658,"o":"m 390 1492 l 756 1492 q 854 1416 803 1492 q 859 1389 859 1394 l 859 1380 q 784 1304 859 1359 q 756 1253 758 1277 l 756 1247 q 851 1128 756 1192 q 935 1117 891 1117 q 1106 1247 1064 1117 q 1022 1348 1106 1289 q 1003 1378 1003 1367 l 1003 1391 q 1066 1478 1003 1431 q 1104 1492 1090 1492 l 1470 1492 q 1489 1473 1489 1492 l 1489 390 q 1470 371 1489 371 l 1109 371 q 1041 309 1076 371 l 1041 303 q 1144 168 1144 232 l 1144 165 q 1060 32 1144 103 q 949 0 1020 0 l 911 0 q 718 149 772 0 l 718 179 q 819 301 718 233 l 819 306 q 754 371 819 339 l 393 371 q 371 393 371 371 l 371 746 q 301 822 371 792 q 179 721 230 721 l 151 721 q 27 808 99 721 q 0 889 0 844 l 0 976 q 130 1139 0 1074 q 154 1144 147 1144 l 168 1144 q 298 1047 231 1144 l 303 1044 q 366 1098 331 1044 q 371 1120 371 1108 l 371 1473 q 390 1492 371 1492 "},"$":{"x_min":76.640625,"x_max":1568.734375,"ha":1692,"o":"m 1001 1492 l 1018 1492 q 1172 1426 1125 1492 q 1221 1329 1221 1375 l 1221 1313 q 1186 1242 1221 1283 q 1121 1185 1121 1188 q 1205 1117 1148 1117 l 1549 1117 q 1568 1098 1568 1117 l 1568 18 q 1549 0 1568 0 l 470 0 q 451 18 451 0 l 451 368 q 385 447 451 413 l 380 447 q 277 349 318 363 l 242 344 q 128 406 193 344 q 76 539 76 455 l 76 569 q 147 727 76 676 q 231 770 191 765 l 247 770 q 377 672 309 770 l 383 670 q 445 724 409 670 q 451 748 451 741 l 451 1098 q 470 1117 451 1117 l 814 1117 q 898 1182 867 1117 l 898 1188 q 798 1313 798 1259 l 798 1337 q 890 1467 798 1389 q 1001 1492 929 1492 "},"∫":{"x_min":0,"x_max":0,"ha":451},"\\":{"x_min":0,"x_max":0,"ha":386},"Ì":{"x_min":0,"x_max":0,"ha":446},"µ":{"x_min":0,"x_max":0,"ha":800},"Ç":{"x_min":0,"x_max":0,"ha":949},"’":{"x_min":0,"x_max":0,"ha":378},"-":{"x_min":0,"x_max":0,"ha":454},"Q":{"x_min":0,"x_max":1117.71875,"ha":1270,"o":"m 18 1120 l 1098 1120 q 1117 1101 1117 1120 l 1117 18 q 1098 0 1117 0 l 735 0 q 640 73 686 0 q 629 113 629 93 q 705 187 629 132 q 732 241 732 218 l 732 246 q 667 344 732 286 q 564 374 636 374 l 553 374 q 415 306 455 374 q 385 244 385 272 q 469 143 385 199 q 488 108 488 124 q 401 2 488 50 q 377 0 386 0 l 18 0 q 0 18 0 0 l 0 387 q 81 485 0 436 l 94 488 l 111 488 q 192 406 133 488 q 244 385 227 385 q 352 463 303 397 q 374 558 374 499 q 314 697 374 659 q 244 735 278 731 l 238 735 q 179 697 214 735 q 108 632 132 632 l 103 632 q 8 705 54 632 q 0 732 0 719 l 0 1101 q 18 1120 0 1120 "},"M":{"x_min":0,"x_max":1120.421875,"ha":1219,"o":"m 534 1866 l 585 1866 q 767 1728 710 1866 q 773 1698 773 1713 q 678 1570 773 1633 q 670 1557 670 1561 q 756 1492 703 1492 l 1101 1492 q 1120 1473 1120 1492 l 1120 1120 q 1030 1006 1120 1049 l 1006 1003 q 930 1082 986 1005 q 876 1109 893 1109 q 786 1055 843 1109 q 746 944 746 1018 l 746 922 q 868 759 746 804 l 876 759 q 982 849 918 759 q 1014 862 999 862 q 1109 789 1063 862 q 1120 748 1120 771 l 1120 393 q 1101 374 1120 374 l 746 374 q 670 306 702 374 l 670 303 q 773 165 773 236 q 708 48 773 114 q 567 0 662 0 l 556 0 q 406 54 449 0 q 347 165 347 113 l 347 168 q 439 295 347 233 q 450 306 439 299 q 377 374 414 374 l 18 374 q 0 393 0 374 l 0 1473 q 18 1492 0 1492 l 368 1492 q 450 1562 417 1492 q 349 1682 349 1633 q 347 1698 347 1682 l 347 1700 q 442 1842 347 1770 q 534 1866 476 1866 "},"C":{"x_min":0,"x_max":1492.09375,"ha":1626,"o":"m 8 1117 l 1109 1117 q 1117 1101 1117 1115 l 1117 756 q 1188 670 1117 701 q 1323 773 1256 773 l 1334 773 q 1443 710 1376 773 q 1492 580 1492 661 l 1492 542 q 1345 349 1492 403 q 1323 347 1326 347 q 1196 442 1258 347 q 1182 450 1187 450 q 1117 371 1117 415 l 1117 18 q 1098 0 1117 0 l 748 0 q 634 86 674 0 q 632 100 632 91 l 632 113 q 705 187 632 136 q 732 241 732 219 l 732 246 q 637 366 732 301 q 575 374 599 374 l 548 374 q 423 317 463 374 q 385 246 387 280 l 385 244 q 474 138 385 201 q 488 111 488 122 l 488 105 q 412 8 488 56 q 368 0 392 0 l 21 0 q 0 21 0 0 l 0 1101 q 8 1117 2 1117 "},"!":{"x_min":140.390625,"x_max":2009.578125,"ha":2084,"o":"m 533 1120 l 905 1120 q 984 1063 938 1120 q 1003 1009 1003 1037 q 918 925 1003 989 q 900 876 900 893 q 970 773 900 832 q 1079 746 999 746 q 1214 808 1169 746 q 1249 876 1242 838 q 1165 976 1249 918 q 1146 1006 1146 995 l 1146 1025 q 1206 1104 1146 1057 q 1247 1120 1230 1120 l 1613 1120 q 1635 1096 1635 1120 l 1635 740 q 1694 672 1635 709 l 1703 672 q 1803 767 1770 758 q 1830 773 1825 773 l 1849 773 q 1971 694 1899 773 q 2009 561 2009 652 q 1944 398 2009 448 q 1846 349 1889 349 l 1833 349 q 1711 442 1773 349 q 1697 450 1702 450 q 1635 382 1635 414 l 1635 24 q 1610 0 1635 0 l 536 0 q 514 21 514 0 l 514 379 q 452 450 514 411 l 444 450 q 322 349 375 349 l 295 349 q 170 436 242 349 q 140 561 140 474 q 219 735 140 685 q 305 773 263 773 l 311 773 q 441 675 376 773 l 446 672 q 514 737 482 672 l 514 1101 q 533 1120 514 1120 "},"ç":{"x_min":0,"x_max":0,"ha":614},"È":{"x_min":0,"x_max":0,"ha":781},"ﬁ":{"x_min":0,"x_max":0,"ha":728},"{":{"x_min":0,"x_max":0,"ha":688},"X":{"x_min":0,"x_max":1117.71875,"ha":1228,"o":"m 18 1120 l 374 1120 q 488 1022 448 1120 l 488 1009 q 404 925 488 987 q 385 876 385 892 q 480 756 385 818 q 550 746 510 746 l 572 746 q 732 865 686 746 q 735 873 732 873 q 640 984 735 918 q 632 1006 632 1001 l 632 1020 q 683 1098 632 1053 q 743 1120 714 1120 l 1098 1120 q 1117 1101 1117 1120 l 1117 18 q 1098 0 1117 0 l 746 0 q 634 86 676 0 q 632 100 632 91 l 632 113 q 708 189 632 134 q 735 244 725 208 q 683 330 735 276 q 558 374 648 374 l 553 374 q 415 306 457 374 q 385 238 385 275 q 477 135 385 202 q 488 111 488 121 q 396 2 488 44 q 368 0 381 0 l 21 0 q 0 21 0 0 l 0 387 q 78 482 0 436 q 103 488 96 488 l 111 488 q 189 409 133 488 q 246 385 223 385 q 355 466 286 385 q 374 561 374 504 q 309 702 374 657 q 244 735 280 727 q 138 645 201 735 q 111 632 122 632 l 100 632 q 2 713 52 632 l 0 727 l 0 1101 q 18 1120 0 1120 "},"ô":{"x_min":0,"x_max":0,"ha":685},"¼":{"x_min":0,"x_max":0,"ha":1158},"#":{"x_min":79.359375,"x_max":1948.53125,"ha":2010,"o":"m 472 1492 l 844 1492 q 928 1426 881 1492 q 942 1389 942 1406 l 942 1380 q 863 1302 942 1359 q 838 1245 838 1269 q 914 1139 853 1186 q 1018 1117 949 1117 q 1156 1182 1110 1117 q 1188 1250 1188 1223 q 1096 1356 1188 1289 q 1085 1380 1085 1370 l 1085 1391 q 1159 1483 1085 1437 q 1186 1492 1173 1492 l 1552 1492 q 1574 1470 1574 1492 l 1574 1112 q 1641 1041 1574 1077 q 1736 1136 1704 1126 q 1777 1144 1761 1144 l 1783 1144 q 1918 1055 1848 1144 q 1948 933 1948 1017 q 1883 770 1948 818 q 1785 721 1829 721 l 1766 721 q 1652 811 1715 721 l 1641 822 q 1585 778 1619 822 q 1574 754 1574 764 l 1574 393 q 1549 371 1574 371 l 1197 371 q 1123 306 1155 371 l 1123 303 q 1226 168 1226 234 l 1226 165 q 1126 21 1226 92 q 1026 0 1093 0 l 993 0 q 806 135 862 0 q 800 165 800 146 l 800 168 q 904 303 800 236 q 830 371 871 371 l 475 371 q 453 393 453 371 l 453 748 q 388 822 453 788 l 383 822 q 261 721 314 721 l 233 721 q 101 819 178 721 q 79 935 79 860 q 141 1093 79 1044 q 236 1144 191 1139 l 250 1144 q 375 1052 316 1144 q 385 1041 379 1052 q 453 1117 453 1076 l 453 1473 q 472 1492 453 1492 "},"Ê":{"x_min":0,"x_max":0,"ha":781},")":{"x_min":39.34375,"x_max":1534.140625,"ha":1689,"o":"m 950 1863 l 994 1863 q 1173 1744 1115 1863 q 1184 1709 1184 1723 l 1184 1684 q 1148 1614 1184 1654 q 1083 1554 1083 1561 q 1170 1489 1115 1489 l 1512 1489 q 1534 1467 1534 1489 l 1534 1131 q 1436 1003 1534 1035 l 1420 1003 q 1344 1079 1397 1003 q 1289 1106 1306 1106 q 1159 944 1159 1066 l 1159 914 q 1281 756 1159 803 l 1289 756 q 1384 835 1332 756 q 1420 859 1408 859 l 1428 859 q 1517 797 1470 859 q 1534 729 1534 773 l 1534 393 q 1512 371 1534 371 l 1159 371 q 1083 306 1117 371 l 1083 301 q 1184 179 1184 229 l 1184 151 q 1105 32 1184 104 q 1015 0 1064 0 l 929 0 q 763 138 826 0 l 760 154 l 760 168 q 796 246 760 208 q 861 303 861 300 q 809 366 861 328 q 785 371 792 371 l 432 371 q 413 390 413 371 l 413 743 q 345 822 413 786 q 237 724 274 724 q 218 718 237 718 l 196 718 q 85 786 150 718 q 39 935 39 826 q 115 1104 39 1051 q 210 1144 165 1144 q 335 1052 271 1144 q 348 1041 342 1041 q 413 1125 413 1073 l 413 1470 q 432 1489 413 1489 l 771 1489 q 861 1557 835 1489 l 861 1559 q 766 1665 766 1633 q 760 1687 760 1675 l 760 1700 q 864 1844 760 1772 q 950 1863 897 1863 "},"Å":{"x_min":0,"x_max":0,"ha":1044},"ø":{"x_min":0,"x_max":0,"ha":685},"â":{"x_min":0,"x_max":0,"ha":625},"}":{"x_min":0,"x_max":0,"ha":688},"Ä":{"x_min":0,"x_max":0,"ha":1044},"¸":{"x_min":0,"x_max":0,"ha":695},"a":{"x_min":0,"x_max":1120.421875,"ha":1274,"o":"m 18 1117 l 385 1117 q 480 1044 433 1117 q 488 1017 488 1030 l 488 1006 q 406 925 488 984 q 385 873 385 893 q 436 786 387 836 q 561 743 474 743 q 699 805 657 743 q 735 873 727 834 q 640 984 735 915 q 632 1006 632 998 l 632 1017 q 705 1109 632 1062 q 732 1117 719 1117 l 1101 1117 q 1120 1098 1120 1117 l 1120 746 q 1028 632 1120 672 q 1014 629 1023 629 l 1009 629 q 938 697 984 629 q 873 732 903 732 q 754 637 822 732 q 746 575 746 599 l 746 542 q 873 382 746 426 q 941 423 902 382 q 1003 485 984 485 l 1020 485 q 1115 406 1065 485 q 1120 371 1120 382 l 1120 21 q 1098 0 1120 0 l 732 0 q 640 73 687 0 q 632 100 632 87 l 632 111 q 713 192 632 132 q 735 244 735 228 q 575 371 694 370 l 548 371 q 406 293 453 371 q 385 238 385 265 q 463 146 385 201 q 488 111 488 126 l 488 100 q 415 8 488 55 q 387 0 401 0 l 18 0 q 0 18 0 0 l 0 385 q 62 472 0 423 q 100 485 86 485 l 113 485 q 170 431 134 485 q 241 385 208 385 l 246 385 q 363 477 297 385 q 374 561 374 523 q 339 672 374 637 q 244 732 283 732 q 138 642 200 732 q 111 629 122 629 q 0 727 39 629 l 0 1098 q 18 1117 0 1117 "},"—":{"x_min":0,"x_max":0,"ha":1389},"=":{"x_min":0,"x_max":0,"ha":688},"N":{"x_min":0,"x_max":1492.09375,"ha":1603,"o":"m 537 1492 l 577 1492 q 732 1416 676 1492 q 770 1329 770 1367 l 770 1321 q 667 1188 770 1257 q 740 1120 700 1120 l 1096 1120 q 1117 1098 1117 1120 l 1117 746 q 1182 670 1117 704 l 1185 670 q 1275 759 1258 758 q 1323 773 1295 770 q 1454 694 1383 773 q 1492 561 1492 656 l 1492 558 q 1429 398 1492 443 q 1334 347 1373 347 l 1321 347 q 1193 442 1256 347 l 1185 447 q 1123 393 1159 447 q 1117 371 1117 383 l 1117 18 q 1098 0 1117 0 l 18 0 q 0 18 0 0 l 0 1098 q 21 1120 0 1120 l 379 1120 q 447 1182 411 1120 l 447 1188 q 347 1310 347 1261 l 344 1323 q 434 1464 344 1389 q 537 1492 476 1492 "},"˚":{"x_min":0,"x_max":0,"ha":695},"ú":{"x_min":0,"x_max":0,"ha":718},"⁄":{"x_min":0,"x_max":0,"ha":232},"2":{"x_min":0,"x_max":0,"ha":688},"ü":{"x_min":0,"x_max":0,"ha":718},"¯":{"x_min":0,"x_max":0,"ha":454},"Z":{"x_min":0,"x_max":1120.421875,"ha":1168,"o":"m 21 1120 l 385 1120 q 480 1044 435 1120 q 488 1017 488 1030 l 488 1009 q 409 930 488 986 q 385 873 385 896 q 455 773 402 810 q 564 746 485 746 q 702 811 657 746 q 735 876 726 836 q 651 976 735 917 q 632 1006 632 995 l 632 1020 q 705 1112 632 1064 q 732 1120 719 1120 l 1098 1120 q 1120 1098 1120 1120 l 1120 746 q 1087 672 1120 707 q 1017 632 1047 632 l 1009 632 q 935 702 986 632 q 870 735 904 735 q 759 648 801 714 q 746 569 746 615 l 746 550 q 822 409 746 453 q 876 385 856 385 q 982 477 918 385 q 1009 488 1003 488 l 1017 488 q 1115 406 1068 488 q 1120 374 1120 387 l 1120 21 q 1098 0 1120 0 l 24 0 q 0 21 0 0 l 0 374 q 86 485 0 444 l 103 488 l 113 488 q 189 412 132 488 q 246 385 220 385 q 339 444 280 385 q 374 561 374 478 q 339 675 374 641 q 244 735 284 735 q 143 651 200 735 q 113 632 124 632 l 103 632 q 5 713 52 632 q 0 746 0 732 l 0 1098 q 21 1120 0 1120 "},"u":{"x_min":0,"x_max":1494.796875,"ha":1637,"o":"m 396 1120 l 756 1120 q 854 1044 809 1120 q 862 1017 862 1030 l 862 1009 q 808 949 862 988 q 759 876 759 909 q 838 765 759 830 q 933 746 867 746 l 941 746 q 1109 868 1062 746 l 1109 876 q 1017 982 1109 918 q 1006 1006 1006 1000 l 1006 1020 q 1085 1115 1006 1066 q 1117 1120 1104 1120 l 1473 1120 q 1494 1098 1494 1120 l 1494 18 q 1475 0 1494 0 l 396 0 q 374 21 374 0 l 374 379 q 320 444 374 408 q 306 450 311 450 q 203 355 233 355 q 168 347 195 347 q 21 447 96 347 q 0 561 0 489 q 86 740 0 686 q 168 773 130 773 q 301 675 233 773 l 309 670 q 374 740 374 706 l 374 1098 q 396 1120 374 1120 "},"":{"x_min":0,"x_max":0,"ha":733},"˜":{"x_min":0,"x_max":0,"ha":695},"Ó":{"x_min":0,"x_max":0,"ha":1095},"k":{"x_min":0,"x_max":1117.71875,"ha":1198,"o":"m 537 1866 l 583 1866 q 767 1728 712 1866 q 773 1698 773 1713 q 740 1619 773 1667 q 670 1559 680 1574 q 756 1492 701 1492 l 1098 1492 q 1117 1473 1117 1492 l 1117 1101 q 1058 1020 1117 1069 q 1009 1003 1027 1003 q 930 1082 986 1003 q 876 1109 893 1109 q 746 944 746 1070 l 746 922 q 819 784 746 828 q 873 759 851 759 l 876 759 q 976 843 918 759 q 1011 862 995 862 q 1079 830 1039 862 q 1117 762 1117 788 l 1117 393 q 1098 374 1117 374 l 746 374 q 670 306 702 374 l 670 303 q 773 168 773 234 q 708 48 773 113 q 567 0 662 0 l 553 0 q 371 97 425 0 q 347 165 347 132 l 347 168 q 439 295 347 235 q 450 306 439 299 q 374 374 415 374 l 18 374 q 0 393 0 374 l 0 759 q 81 857 0 809 q 105 862 99 862 l 108 862 q 187 786 134 862 q 244 759 220 759 q 363 851 297 759 q 374 935 374 891 q 295 1085 374 1041 q 244 1109 288 1098 q 173 1063 212 1109 q 108 1003 131 1003 q 5 1085 53 1003 q 0 1109 0 1102 l 0 1473 q 18 1492 0 1492 l 358 1492 q 450 1562 420 1492 q 355 1657 369 1620 q 347 1698 347 1682 l 347 1700 q 447 1847 347 1771 q 537 1866 487 1866 "},"ˇ":{"x_min":0,"x_max":0,"ha":695},"Ù":{"x_min":0,"x_max":0,"ha":1018},"€":{"x_min":0,"x_max":0,"ha":688},"¢":{"x_min":0,"x_max":0,"ha":773},"ß":{"x_min":0,"x_max":0,"ha":848},"é":{"x_min":0,"x_max":0,"ha":617},"s":{"x_min":0,"x_max":1869.1875,"ha":1909,"o":"m 396 1120 l 1473 1120 q 1494 1098 1494 1120 l 1494 743 q 1554 672 1494 706 q 1562 670 1559 670 q 1684 770 1633 770 q 1700 773 1684 773 q 1836 686 1764 773 q 1869 558 1869 646 q 1806 401 1869 450 q 1706 347 1753 351 l 1700 347 q 1565 447 1632 347 l 1559 450 q 1494 377 1494 415 l 1494 24 q 1473 0 1494 0 l 1117 0 q 1014 73 1058 0 q 1006 100 1006 87 l 1006 113 q 1071 179 1006 136 q 1109 244 1106 211 q 1033 352 1109 285 q 938 374 997 374 l 935 374 q 794 314 834 374 q 759 244 760 271 q 849 138 759 201 q 862 111 862 120 q 775 2 862 46 q 751 0 760 0 l 393 0 q 374 18 374 0 l 374 374 q 309 450 374 415 q 244 377 305 450 q 168 347 203 347 q 18 453 90 347 q 0 561 0 484 q 48 708 0 663 q 170 773 111 773 q 301 675 233 773 l 309 670 q 374 746 374 704 l 374 1098 q 396 1120 374 1120 "},"B":{"x_min":0,"x_max":1120.421875,"ha":1202,"o":"m 8 1489 l 1112 1489 q 1120 1473 1120 1486 l 1120 1115 q 1022 1003 1120 1043 l 1009 1003 q 927 1085 987 1003 q 876 1106 897 1106 l 873 1106 q 765 1025 828 1106 q 746 927 746 1000 q 803 797 746 836 q 876 756 822 772 q 976 841 916 756 q 1006 859 995 859 l 1025 859 q 1106 797 1057 859 q 1120 751 1120 775 l 1120 393 q 1101 374 1120 374 l 756 374 q 670 303 700 374 q 773 168 773 236 l 773 165 q 678 24 773 95 q 580 0 644 0 l 539 0 q 349 146 403 0 q 347 168 347 161 q 442 295 347 233 q 450 309 450 304 q 363 374 417 374 l 18 374 q 0 393 0 374 l 0 1473 q 8 1489 2 1489 "},"…":{"x_min":0,"x_max":0,"ha":1389},"?":{"x_min":0,"x_max":0,"ha":507},"H":{"x_min":0,"x_max":1489.375,"ha":1521,"o":"m 8 1117 l 396 1117 q 455 1079 421 1114 q 488 1009 488 1044 q 431 949 488 989 q 382 876 389 916 q 458 767 382 838 q 558 746 497 746 q 699 811 661 746 q 732 876 732 847 q 653 973 732 921 q 629 1011 629 994 q 710 1115 629 1070 q 721 1117 715 1117 l 1109 1117 q 1117 1101 1117 1115 l 1117 743 q 1180 672 1117 708 l 1185 672 q 1245 740 1189 672 q 1321 773 1283 773 l 1326 773 q 1475 664 1403 773 q 1489 604 1489 634 l 1489 518 q 1437 406 1489 458 q 1326 347 1374 347 q 1204 431 1258 347 l 1185 450 q 1123 396 1160 450 q 1117 374 1117 385 l 1117 21 q 1096 0 1117 0 l 18 0 q 0 18 0 0 l 0 1101 q 8 1117 2 1117 "},"î":{"x_min":0,"x_max":0,"ha":349},"c":{"x_min":0,"x_max":1492.09375,"ha":1573,"o":"m 18 1120 l 379 1120 q 488 1025 446 1120 l 488 1009 q 420 938 488 987 q 385 873 385 907 q 455 773 402 810 q 558 746 487 746 q 699 808 657 746 q 735 876 725 833 q 651 976 735 917 q 632 1006 632 995 l 632 1020 q 694 1106 632 1058 q 732 1120 718 1120 l 1098 1120 q 1120 1098 1120 1120 l 1120 740 q 1177 672 1120 710 l 1188 670 q 1288 765 1257 765 q 1323 773 1294 771 l 1334 773 q 1467 680 1391 773 q 1492 585 1492 639 l 1492 539 q 1413 385 1492 438 q 1321 347 1368 347 q 1201 434 1260 347 l 1185 450 q 1120 377 1120 415 l 1120 21 q 1098 0 1120 0 l 21 0 q 0 21 0 0 l 0 385 q 73 480 0 432 q 100 488 87 488 l 111 488 q 181 420 133 488 q 244 385 215 387 q 330 436 276 385 q 374 561 374 472 q 339 675 374 640 q 244 735 281 735 q 138 645 200 735 q 111 632 122 632 l 100 632 q 10 699 59 632 q 0 735 0 725 l 0 1101 q 18 1120 0 1120 "},"¶":{"x_min":0,"x_max":0,"ha":695},"−":{"x_min":0,"x_max":0,"ha":688},"•":{"x_min":0,"x_max":0,"ha":695},"¥":{"x_min":0,"x_max":0,"ha":856},"(":{"x_min":170.90625,"x_max":1663,"ha":1757,"o":"m 1106 1494 q 1280 1410 1228 1494 q 1315 1326 1315 1367 l 1315 1323 q 1212 1188 1315 1258 q 1285 1120 1245 1120 l 1644 1120 q 1663 1101 1663 1120 l 1663 735 q 1587 637 1663 687 q 1559 632 1565 632 l 1551 632 q 1473 708 1530 632 q 1416 735 1442 735 q 1307 656 1359 722 q 1288 558 1288 619 q 1342 425 1288 467 q 1418 385 1385 388 q 1524 474 1461 385 q 1551 488 1540 488 l 1565 488 q 1649 423 1602 488 q 1663 385 1663 400 l 1663 18 q 1644 0 1663 0 l 1277 0 q 1182 73 1230 0 q 1174 103 1174 94 l 1174 111 q 1242 181 1174 133 q 1277 244 1274 210 q 1204 349 1277 287 q 1098 374 1174 374 q 960 309 1005 374 q 927 244 937 286 q 1011 143 927 202 q 1030 113 1030 127 l 1030 100 q 963 10 1030 59 q 933 0 941 0 l 564 0 q 542 21 542 0 l 542 379 q 488 444 542 408 q 474 450 479 450 q 379 355 416 369 q 339 347 355 347 l 336 347 q 192 447 261 347 q 170 537 170 477 l 170 580 q 236 724 170 674 q 336 773 289 773 l 339 773 q 472 672 404 773 l 477 670 q 534 718 495 670 q 542 743 542 729 l 542 1098 q 564 1120 542 1120 l 919 1120 q 990 1180 956 1120 q 992 1188 992 1185 q 895 1299 895 1262 q 889 1329 891 1299 q 990 1473 889 1395 q 1106 1494 1032 1494 "},"U":{"x_min":0,"x_max":1492.09375,"ha":1616,"o":"m 21 1120 l 1098 1120 q 1120 1098 1120 1120 l 1120 743 q 1188 670 1120 703 q 1288 767 1246 752 q 1323 773 1313 773 l 1326 773 q 1473 670 1401 773 q 1492 583 1492 638 l 1492 534 q 1364 355 1492 416 q 1326 347 1346 347 l 1323 347 q 1190 447 1258 347 l 1185 450 q 1123 393 1163 450 l 1120 377 l 1120 21 q 1098 0 1120 0 l 735 0 q 640 73 687 0 q 632 100 632 87 l 632 113 q 705 187 632 134 q 735 244 725 207 q 680 333 735 278 q 558 374 647 374 l 553 374 q 387 255 429 374 q 385 241 385 250 q 477 135 385 204 q 488 111 488 121 q 401 2 488 45 l 385 0 l 21 0 q 0 21 0 0 l 0 385 q 70 480 0 430 q 100 488 91 488 l 113 488 q 189 412 130 488 q 246 385 220 385 q 355 466 303 397 q 374 561 374 497 q 339 675 374 642 q 244 735 282 735 q 138 645 201 735 q 111 632 120 632 l 103 632 q 8 708 54 632 q 0 735 0 722 l 0 1098 q 21 1120 0 1120 "},"Ñ":{"x_min":0,"x_max":0,"ha":1054},"F":{"x_min":0,"x_max":1117.71875,"ha":1234,"o":"m 8 1115 l 390 1115 q 477 1044 432 1115 q 485 1017 485 1030 l 485 1006 q 417 935 485 984 q 382 870 382 902 q 444 775 387 835 q 558 743 487 743 q 697 805 654 743 q 732 873 732 843 q 642 979 732 919 q 629 1006 629 996 l 629 1014 q 686 1098 629 1055 q 721 1115 710 1115 l 1109 1115 q 1117 1098 1117 1112 l 1117 732 q 1047 640 1117 687 q 1006 629 1024 629 q 930 705 986 629 q 876 732 899 732 l 873 732 q 756 642 819 732 q 743 561 743 604 q 797 425 743 465 q 873 385 842 385 l 878 385 q 982 477 917 385 q 1011 488 998 488 q 1112 409 1063 488 q 1117 385 1117 392 l 1117 18 q 1098 0 1117 0 l 729 0 q 634 78 682 0 q 629 108 629 89 l 629 111 q 713 195 629 130 q 732 244 732 225 q 664 344 728 289 q 558 374 631 374 q 423 317 463 374 q 382 244 395 290 q 472 138 382 200 q 485 111 485 122 l 485 100 q 423 13 485 60 q 385 0 399 0 l 18 0 q 0 18 0 0 l 0 1098 q 8 1115 2 1115 "},"­":{"x_min":0,"x_max":0,"ha":454},":":{"x_min":0,"x_max":0,"ha":378},"Û":{"x_min":0,"x_max":0,"ha":1018},"*":{"x_min":147.859375,"x_max":2014.328125,"ha":2096,"o":"m 1059 1492 l 1102 1492 q 1257 1410 1202 1492 q 1292 1329 1292 1367 l 1292 1321 q 1189 1188 1292 1257 q 1262 1120 1222 1120 l 1618 1120 q 1639 1098 1639 1120 l 1639 746 q 1705 670 1639 704 l 1710 670 q 1846 773 1779 773 q 1979 691 1907 773 q 2014 561 2014 653 l 2014 558 q 1951 398 2014 444 q 1856 347 1894 347 l 1843 347 q 1718 439 1778 347 q 1707 450 1714 439 q 1639 371 1639 415 l 1639 18 q 1620 0 1639 0 l 541 0 q 522 18 522 0 l 522 360 q 451 450 522 419 q 324 347 381 347 l 305 347 q 172 439 248 347 q 147 539 147 480 l 147 580 q 294 770 147 716 q 316 773 309 773 q 443 678 380 773 q 457 670 452 670 q 522 756 522 702 l 522 1098 q 543 1120 522 1120 l 896 1120 q 969 1185 938 1120 l 969 1188 q 866 1318 866 1264 l 866 1323 q 969 1473 866 1398 q 1059 1492 1005 1492 "},"†":{"x_min":0,"x_max":0,"ha":688},"∕":{"x_min":0,"x_max":0,"ha":232},"°":{"x_min":0,"x_max":0,"ha":457},"V":{"x_min":0,"x_max":1492.09375,"ha":1551,"o":"m 18 1494 l 1098 1494 q 1117 1475 1117 1494 l 1117 1123 q 1185 1044 1117 1079 q 1304 1147 1254 1138 l 1326 1147 q 1459 1063 1390 1147 q 1492 935 1492 1026 l 1492 933 q 1429 773 1492 821 q 1318 721 1374 721 q 1239 759 1282 721 q 1182 824 1188 824 q 1117 746 1117 789 l 1117 393 q 1098 374 1117 374 l 737 374 q 670 311 704 374 l 670 306 q 754 225 754 237 q 770 173 770 198 l 770 165 q 689 35 770 104 q 558 0 649 0 q 398 62 445 0 q 347 157 347 120 l 347 181 q 447 303 347 235 l 447 306 q 404 363 441 337 q 379 374 389 374 l 18 374 q 0 393 0 374 l 0 767 q 54 843 0 798 q 97 862 78 862 l 111 862 q 192 781 132 862 q 244 759 224 759 q 341 824 280 759 q 374 933 374 862 q 314 1071 374 1030 q 238 1109 273 1109 q 138 1020 199 1109 q 105 1006 118 1006 l 103 1006 q 8 1079 54 1006 q 0 1106 0 1093 l 0 1475 q 18 1494 0 1494 "},"å":{"x_min":0,"x_max":0,"ha":625}," ":{"x_min":0,"x_max":0,"ha":345},"0":{"x_min":0,"x_max":0,"ha":688},"”":{"x_min":0,"x_max":0,"ha":617},"¾":{"x_min":0,"x_max":0,"ha":1158},"@":{"x_min":0,"x_max":0,"ha":1369},"ö":{"x_min":0,"x_max":0,"ha":685},"i":{"x_min":0,"x_max":1120.421875,"ha":1249,"o":"m 561 1494 q 735 1416 682 1494 q 773 1329 773 1367 l 773 1323 q 670 1188 773 1258 q 743 1120 703 1120 l 1098 1120 q 1120 1098 1120 1120 l 1120 743 q 1033 634 1120 676 l 1017 632 l 1009 632 q 930 708 988 632 q 873 735 900 735 q 781 675 837 731 q 746 558 746 640 q 800 425 746 467 q 876 385 845 385 q 976 469 921 385 q 1006 488 995 488 l 1022 488 q 1101 431 1054 488 q 1120 382 1119 403 l 1120 21 q 1098 0 1120 0 l 735 0 q 642 70 688 0 q 632 111 632 88 q 716 195 632 132 q 735 244 735 227 q 653 355 735 293 q 558 374 623 374 q 412 301 456 374 q 387 246 389 274 l 387 241 q 469 143 387 200 q 488 113 488 126 l 488 94 q 428 16 472 44 q 387 0 404 0 l 21 0 q 0 21 0 0 l 0 368 q 86 485 0 443 l 103 488 l 113 488 q 173 431 134 488 q 249 385 209 385 q 374 548 374 428 l 374 572 q 249 735 374 691 l 244 735 q 149 656 203 735 q 113 632 127 632 l 103 632 q 8 708 54 632 q 0 751 0 725 l 0 1098 q 21 1120 0 1120 l 377 1120 q 450 1185 417 1120 l 450 1188 q 352 1299 352 1262 q 347 1329 349 1304 q 431 1462 347 1385 q 561 1494 478 1494 "},"≤":{"x_min":0,"x_max":0,"ha":688},"Õ":{"x_min":0,"x_max":0,"ha":1095},"№":{"x_min":0,"x_max":0,"ha":1540},"þ":{"x_min":0,"x_max":0,"ha":685},"]":{"x_min":0,"x_max":0,"ha":514},"m":{"x_min":0,"x_max":1494.796875,"ha":1590,"o":"m 539 1492 l 580 1492 q 767 1356 712 1492 q 773 1326 773 1345 l 773 1323 q 683 1199 773 1258 q 670 1188 683 1197 q 743 1120 703 1120 l 1098 1120 q 1120 1098 1120 1120 l 1120 740 q 1185 670 1120 706 l 1190 670 q 1323 773 1260 773 q 1478 661 1404 773 q 1494 556 1494 624 q 1394 371 1494 423 q 1329 347 1364 347 l 1323 347 q 1199 439 1257 347 q 1188 450 1195 439 q 1120 374 1120 417 l 1120 18 q 1101 0 1120 0 l 729 0 q 645 62 696 0 q 632 103 632 92 l 632 111 q 710 189 632 133 q 735 246 735 222 q 659 352 720 305 q 558 374 626 374 q 415 303 458 374 q 385 241 385 269 q 469 143 385 202 q 488 113 488 124 l 488 100 q 409 5 488 52 q 385 0 392 0 l 21 0 q 0 21 0 0 l 0 377 q 89 485 0 443 q 111 488 100 488 q 192 406 134 488 q 249 385 225 385 q 344 450 283 385 q 374 553 374 484 l 374 558 q 320 691 374 657 q 252 732 290 725 l 241 732 q 149 656 200 732 q 113 632 129 632 l 100 632 q 16 691 62 632 q 0 735 0 716 l 0 1096 q 21 1120 0 1120 l 377 1120 q 450 1182 414 1120 l 450 1188 q 349 1307 349 1259 q 347 1323 347 1307 q 453 1473 347 1403 q 539 1492 482 1492 "},"8":{"x_min":0,"x_max":0,"ha":688},"R":{"x_min":0,"x_max":1120.421875,"ha":1240,"o":"m 21 1494 l 1101 1494 q 1120 1475 1120 1494 l 1120 396 q 1098 374 1120 374 l 740 374 q 675 320 712 374 l 670 306 q 773 176 773 233 l 773 168 q 659 13 773 88 q 558 0 609 0 q 385 81 437 0 q 347 173 347 126 q 447 303 347 232 l 450 309 q 377 374 416 374 l 21 374 q 0 396 0 374 l 0 748 q 89 859 0 820 q 103 862 94 862 l 113 862 q 189 786 132 862 q 246 759 221 759 q 349 830 284 759 q 374 925 374 864 l 374 944 q 317 1071 374 1030 q 241 1109 274 1109 q 138 1017 202 1109 q 113 1006 122 1006 l 103 1006 q 5 1087 52 1006 q 0 1120 0 1106 l 0 1473 q 21 1494 0 1494 "},"á":{"x_min":0,"x_max":0,"ha":625},"×":{"x_min":0,"x_max":0,"ha":688},"o":{"x_min":0,"x_max":1489.375,"ha":1599,"o":"m 390 1120 l 1470 1120 q 1489 1101 1489 1120 l 1489 18 q 1470 0 1489 0 l 1115 0 q 1003 89 1047 0 q 1001 113 1001 104 q 1077 187 1001 132 q 1104 238 1102 215 l 1104 246 q 1039 344 1104 286 q 935 374 1006 374 l 925 374 q 794 317 834 374 q 756 246 759 279 l 756 244 q 849 135 756 198 q 859 105 859 117 q 781 5 859 56 q 754 0 759 0 l 390 0 q 371 18 371 0 l 371 366 q 301 450 371 421 q 165 347 233 347 q 18 447 90 347 q 0 515 0 480 l 0 604 q 138 770 0 706 l 165 773 q 287 686 229 773 q 303 670 301 670 q 371 754 371 700 l 371 1101 q 390 1120 371 1120 "},"5":{"x_min":0,"x_max":0,"ha":688},"õ":{"x_min":0,"x_max":0,"ha":685},"7":{"x_min":0,"x_max":0,"ha":688},"K":{"x_min":0,"x_max":1120.421875,"ha":1220,"o":"m 539 1492 l 580 1492 q 746 1397 689 1492 q 773 1323 773 1357 q 678 1196 773 1260 q 670 1182 670 1187 q 748 1117 704 1117 l 1101 1117 q 1120 1098 1120 1117 l 1120 756 q 1022 632 1120 663 l 1006 632 q 933 705 984 632 q 878 732 901 732 l 870 732 q 759 645 822 732 q 746 572 746 620 l 746 542 q 868 385 746 431 l 876 385 q 971 463 918 385 q 1009 488 995 488 l 1014 488 q 1115 406 1065 488 q 1120 371 1120 382 l 1120 21 q 1098 0 1120 0 l 18 0 q 0 18 0 0 l 0 1098 q 18 1117 0 1117 l 363 1117 q 450 1188 419 1117 q 347 1315 347 1258 l 347 1334 q 406 1440 347 1376 q 539 1492 456 1492 "},",":{"x_min":80.703125,"x_max":1944.46875,"ha":2101,"o":"m 986 1863 l 1041 1863 q 1160 1817 1112 1863 q 1225 1709 1225 1751 l 1225 1684 q 1160 1589 1225 1639 q 1125 1559 1125 1562 l 1125 1557 q 1187 1492 1125 1527 l 1551 1492 q 1572 1470 1572 1492 l 1572 1120 q 1637 1041 1572 1075 l 1643 1041 q 1778 1144 1713 1144 q 1928 1041 1850 1144 q 1944 973 1944 1004 l 1944 887 q 1822 727 1944 794 q 1789 718 1797 718 l 1776 718 q 1648 813 1713 718 l 1640 819 q 1578 765 1614 819 q 1572 743 1572 754 l 1572 390 q 1553 371 1572 371 l 1201 371 q 1125 306 1158 371 l 1125 303 l 1195 241 q 1225 176 1222 210 l 1225 160 q 1119 13 1225 89 q 1049 0 1082 0 l 978 0 q 826 92 887 0 q 802 151 802 131 l 802 179 q 851 260 802 216 q 902 303 899 297 q 848 366 902 330 q 826 371 838 371 l 474 371 q 455 390 455 371 l 455 735 q 387 819 455 791 l 381 819 q 251 718 316 718 l 238 718 q 118 794 189 718 q 80 911 80 837 l 80 949 q 126 1077 80 1030 q 251 1144 192 1144 q 379 1047 313 1144 q 389 1041 385 1041 q 455 1128 455 1072 l 455 1470 q 476 1492 455 1492 l 834 1492 q 902 1554 868 1492 l 902 1559 q 802 1684 802 1633 l 802 1709 q 883 1831 802 1759 q 986 1863 925 1863 "},"d":{"x_min":0,"x_max":1492.09375,"ha":1581,"o":"m 18 1117 l 385 1117 q 477 1049 427 1117 q 488 1006 488 1025 q 412 930 488 986 q 385 873 385 901 q 480 754 385 817 q 561 743 520 743 q 694 800 653 743 q 732 870 730 838 l 732 876 q 651 973 732 917 q 632 1003 632 992 l 632 1022 q 664 1079 636 1048 q 732 1117 702 1117 l 1098 1117 q 1117 1098 1117 1117 l 1117 746 q 1188 667 1117 701 q 1315 770 1258 770 l 1334 770 q 1462 683 1390 770 q 1492 569 1492 649 l 1492 539 q 1445 412 1492 458 q 1332 347 1382 347 l 1318 347 q 1196 439 1256 347 q 1182 447 1187 447 q 1117 368 1117 413 l 1117 18 q 1098 0 1117 0 l 727 0 q 648 56 678 13 q 632 94 632 82 l 632 113 q 702 184 632 132 q 732 244 732 210 q 637 363 732 299 q 572 371 602 371 l 548 371 q 406 295 453 371 q 385 244 385 267 l 385 241 q 477 135 385 197 q 488 105 488 115 q 409 5 488 51 q 385 0 392 0 l 18 0 q 0 18 0 0 l 0 387 q 81 482 0 435 l 94 485 l 113 485 q 187 412 131 485 q 241 385 214 385 l 246 385 q 358 469 294 385 q 374 558 368 489 q 311 697 374 655 q 238 732 273 732 q 135 640 200 732 q 105 629 117 629 q 8 702 54 629 q 0 729 0 716 l 0 1098 q 18 1117 0 1117 "},"¨":{"x_min":0,"x_max":0,"ha":695},"Ô":{"x_min":0,"x_max":0,"ha":1095},"E":{"x_min":0,"x_max":1120.421875,"ha":1246,"o":"m 8 1117 l 393 1117 q 474 1055 431 1117 q 488 1017 488 1031 l 488 1009 q 409 930 488 986 q 385 873 385 895 q 461 767 400 813 q 561 746 495 746 q 699 808 657 746 q 735 876 725 833 q 642 982 735 918 q 632 1006 632 1000 l 632 1020 q 659 1077 632 1041 q 721 1117 701 1117 l 1109 1117 q 1120 1098 1120 1113 l 1120 746 q 1087 672 1120 707 q 1017 632 1047 632 l 1006 632 q 935 702 986 632 q 870 735 903 735 q 759 648 801 714 q 746 569 746 615 l 746 550 q 813 415 746 457 q 876 385 834 394 q 971 463 917 385 q 1006 488 994 488 l 1017 488 q 1115 409 1065 488 q 1120 374 1120 385 l 1120 21 q 1098 0 1120 0 l 18 0 q 0 18 0 0 l 0 1101 q 8 1117 2 1117 "},"Y":{"x_min":0,"x_max":1117.71875,"ha":1313,"o":"m 18 1492 l 385 1492 q 482 1413 434 1492 q 488 1383 488 1402 l 488 1380 q 404 1296 488 1360 q 385 1247 385 1266 q 455 1144 385 1203 q 564 1117 485 1117 q 713 1199 666 1117 q 735 1247 725 1209 q 645 1353 735 1289 q 632 1380 632 1369 l 632 1391 q 705 1483 632 1437 q 732 1492 719 1492 l 1098 1492 q 1117 1473 1117 1492 l 1117 393 q 1096 371 1117 371 l 743 371 q 672 311 704 371 q 670 303 670 306 q 770 192 760 240 q 773 162 773 168 q 675 21 773 98 q 572 0 639 0 l 539 0 q 371 94 432 0 q 347 162 347 130 l 347 176 q 385 252 347 209 q 450 306 450 303 q 377 371 415 371 l 21 371 q 0 393 0 371 l 0 759 q 81 857 0 808 l 94 859 l 113 859 q 181 792 134 859 q 241 756 207 765 q 341 822 281 756 q 374 935 374 854 q 252 1106 374 1061 l 244 1106 q 138 1017 199 1106 q 111 1003 122 1003 q 0 1096 42 1003 l 0 1473 q 18 1492 0 1492 "},"\"":{"x_min":68.5,"x_max":1934.96875,"ha":1991,"o":"m 461 1117 l 828 1117 q 914 1055 867 1117 q 928 1017 928 1031 l 928 1003 q 852 927 928 986 q 825 873 833 908 q 909 762 847 798 q 1004 743 937 743 q 1142 808 1100 743 q 1175 870 1171 836 l 1175 873 q 1085 979 1175 920 q 1072 1006 1072 994 l 1072 1014 q 1148 1112 1072 1061 q 1175 1117 1169 1117 l 1541 1117 q 1560 1098 1560 1117 l 1560 746 q 1622 670 1560 704 l 1628 670 q 1688 737 1631 670 q 1764 770 1726 770 l 1777 770 q 1894 697 1823 770 q 1934 567 1934 654 l 1934 550 q 1853 382 1934 433 q 1780 347 1808 347 l 1761 347 q 1633 444 1698 347 l 1628 447 q 1566 393 1603 447 q 1560 371 1560 383 l 1560 18 q 1541 0 1560 0 l 1169 0 q 1091 54 1142 0 q 1072 103 1072 85 l 1072 111 q 1148 187 1072 130 q 1175 241 1175 217 l 1175 244 q 1126 328 1175 278 q 1018 371 1085 371 l 988 371 q 825 244 867 371 q 909 143 825 200 q 928 113 928 124 l 928 94 q 868 13 919 52 q 828 0 838 0 l 461 0 q 442 18 442 0 l 442 368 q 375 447 442 415 l 372 447 q 244 347 301 347 l 228 347 q 87 447 160 347 q 68 537 68 485 l 68 577 q 209 767 68 712 q 231 770 220 770 l 244 770 q 372 670 299 770 l 375 670 q 442 754 442 697 l 442 1098 q 461 1117 442 1117 "},"‹":{"x_min":0,"x_max":0,"ha":428},"˙":{"x_min":0,"x_max":0,"ha":695},"ê":{"x_min":0,"x_max":0,"ha":617},"Ï":{"x_min":0,"x_max":0,"ha":446},"„":{"x_min":0,"x_max":0,"ha":617},"Â":{"x_min":0,"x_max":0,"ha":1044},"Í":{"x_min":0,"x_max":0,"ha":446},"´":{"x_min":0,"x_max":0,"ha":695},"ì":{"x_min":0,"x_max":0,"ha":349},"±":{"x_min":0,"x_max":0,"ha":688},"Ú":{"x_min":0,"x_max":0,"ha":1018},"|":{"x_min":0,"x_max":0,"ha":688},"§":{"x_min":0,"x_max":0,"ha":688},"Ý":{"x_min":0,"x_max":0,"ha":836},"b":{"x_min":0,"x_max":1120.421875,"ha":1236,"o":"m 21 1494 l 385 1494 q 482 1416 436 1494 q 488 1391 488 1398 l 488 1383 q 409 1304 488 1360 q 385 1247 385 1268 q 463 1142 404 1180 q 561 1120 493 1120 q 702 1185 659 1120 q 735 1250 728 1213 q 651 1351 735 1292 q 632 1380 632 1370 l 632 1394 q 702 1486 632 1435 q 732 1494 723 1494 l 1101 1494 q 1120 1475 1120 1494 l 1120 1117 q 1033 1009 1120 1053 l 1017 1006 l 1009 1006 q 941 1071 986 1006 q 870 1109 906 1109 q 770 1036 810 1091 q 746 941 746 1006 l 746 927 q 822 784 746 827 q 876 759 857 759 q 982 849 916 759 q 1009 862 997 862 l 1017 862 q 1117 775 1071 862 q 1120 751 1120 760 l 1120 396 q 1098 374 1120 374 l 743 374 q 675 320 710 374 q 670 306 670 311 q 773 170 773 233 l 773 165 q 694 37 773 108 q 561 0 651 0 q 396 67 443 0 q 347 173 347 117 q 450 306 347 233 q 377 374 417 374 l 24 374 q 0 396 0 374 l 0 748 q 86 859 0 817 l 103 862 l 113 862 q 189 786 132 862 q 246 759 222 759 q 341 822 281 759 q 374 935 374 853 q 311 1077 374 1034 q 244 1109 271 1109 q 149 1030 202 1109 q 113 1006 128 1006 l 103 1006 q 10 1079 56 1006 q 0 1125 0 1096 l 0 1473 q 21 1494 0 1494 "},"q":{"x_min":0,"x_max":1492.09375,"ha":1624,"o":"m 393 1120 l 1473 1120 q 1492 1101 1492 1120 l 1492 732 q 1413 637 1492 684 q 1389 632 1395 632 l 1383 632 q 1310 702 1359 632 q 1245 735 1277 735 q 1144 664 1197 726 q 1117 561 1117 626 q 1215 398 1117 442 q 1250 385 1217 392 q 1356 477 1290 385 q 1380 488 1370 488 l 1397 488 q 1475 431 1428 488 q 1492 393 1492 403 l 1492 18 q 1473 0 1492 0 l 1109 0 q 1014 73 1060 0 q 1003 113 1003 92 q 1090 198 1003 130 q 1106 238 1106 229 l 1106 246 q 1041 344 1106 287 q 938 374 1010 374 l 927 374 q 789 306 831 374 q 759 244 759 272 q 843 143 759 199 q 862 108 862 124 q 781 5 862 52 q 756 0 763 0 l 393 0 q 374 18 374 0 l 374 371 q 306 450 374 418 l 303 450 q 208 355 248 370 q 162 347 183 347 q 18 453 93 347 q 0 556 0 486 l 0 561 q 43 702 0 661 q 165 773 109 773 l 170 773 q 295 680 235 773 q 306 670 299 680 q 374 756 374 702 l 374 1101 q 393 1120 374 1120 "},"Ö":{"x_min":0,"x_max":0,"ha":1095},"ﬂ":{"x_min":0,"x_max":0,"ha":733},"z":{"x_min":0,"x_max":1494.796875,"ha":1620,"o":"m 393 1492 l 762 1492 q 851 1424 803 1492 q 862 1389 862 1403 l 862 1380 q 784 1302 862 1358 q 759 1245 759 1268 q 835 1139 759 1207 q 935 1117 872 1117 q 1079 1188 1037 1117 q 1109 1250 1109 1222 q 1017 1356 1109 1290 q 1006 1380 1006 1370 l 1006 1391 q 1079 1483 1006 1436 q 1106 1492 1093 1492 l 1473 1492 q 1494 1470 1494 1492 l 1494 1106 q 1432 1020 1494 1065 q 1389 1003 1407 1003 l 1383 1003 q 1318 1066 1360 1003 q 1250 1106 1281 1106 q 1131 1011 1194 1106 q 1120 930 1120 975 q 1174 800 1120 836 q 1247 759 1215 759 l 1253 759 q 1345 835 1294 759 q 1380 859 1365 859 l 1394 859 q 1486 786 1439 859 q 1494 759 1494 773 l 1494 393 q 1473 371 1494 371 l 1117 371 q 1044 306 1078 371 l 1044 303 q 1139 208 1125 245 q 1147 168 1147 184 l 1147 165 q 1044 18 1147 92 q 954 0 1008 0 l 922 0 q 794 40 834 0 q 721 165 721 107 l 721 168 q 808 290 721 233 l 824 306 q 751 371 789 371 l 398 371 q 374 393 374 371 l 374 748 q 309 822 374 789 l 306 822 q 200 727 233 727 q 181 721 200 721 l 154 721 q 32 805 103 721 q 0 933 0 843 q 81 1109 0 1056 q 165 1144 128 1144 l 179 1144 q 306 1041 233 1144 q 374 1112 374 1077 l 374 1473 q 393 1492 374 1492 "},"™":{"x_min":0,"x_max":0,"ha":1015},"ã":{"x_min":0,"x_max":0,"ha":625},"æ":{"x_min":0,"x_max":0,"ha":986},"®":{"x_min":0,"x_max":0,"ha":1135},"É":{"x_min":0,"x_max":0,"ha":781},"~":{"x_min":0,"x_max":0,"ha":688},"³":{"x_min":0,"x_max":0,"ha":688},"₧":{"x_min":0,"x_max":0,"ha":1375},"¡":{"x_min":0,"x_max":0,"ha":456},"[":{"x_min":0,"x_max":0,"ha":514},"L":{"x_min":0,"x_max":1120.421875,"ha":1232,"o":"m 548 1492 l 580 1492 q 773 1342 718 1492 l 773 1315 q 735 1239 773 1283 q 670 1185 670 1189 q 718 1128 680 1154 q 743 1120 729 1120 l 1096 1120 q 1120 1098 1120 1120 l 1120 732 q 1047 640 1120 687 q 1020 632 1033 632 l 1006 632 q 933 705 986 632 q 878 732 903 732 l 873 732 q 765 651 825 732 q 746 556 746 623 q 781 444 746 480 q 876 385 836 385 q 979 472 921 385 q 1009 488 996 488 l 1014 488 q 1115 409 1066 488 q 1120 385 1120 392 l 1120 18 q 1101 0 1120 0 l 735 0 q 637 78 683 0 q 632 100 632 88 l 632 111 q 713 192 632 132 q 735 244 735 223 q 653 355 735 290 q 558 374 620 374 q 425 317 464 374 q 385 244 396 293 q 480 132 385 202 q 488 111 488 119 l 488 100 q 420 10 488 59 q 390 0 398 0 l 21 0 q 0 21 0 0 l 0 1098 q 24 1120 0 1120 l 377 1120 q 447 1180 413 1120 q 450 1188 450 1185 q 347 1318 347 1260 l 347 1329 q 431 1459 347 1389 q 548 1492 465 1492 "},";":{"x_min":0,"x_max":0,"ha":378}," ":{"x_min":0,"x_max":0,"ha":345},"∑":{"x_min":0,"x_max":0,"ha":818},"%":{"x_min":42.046875,"x_max":1531.421875,"ha":1683,"o":"m 950 1492 l 994 1492 q 1181 1353 1126 1492 q 1186 1323 1184 1349 q 1148 1242 1186 1284 q 1083 1182 1083 1189 q 1157 1120 1118 1120 l 1512 1120 q 1531 1101 1531 1120 l 1531 18 q 1512 0 1531 0 l 1148 0 q 1053 73 1100 0 q 1045 100 1045 87 l 1045 113 q 1121 189 1045 131 q 1148 244 1142 213 q 1089 339 1144 282 q 972 374 1053 374 q 839 320 878 374 q 798 244 798 275 q 888 138 798 198 q 902 111 902 122 l 902 103 q 826 8 902 54 q 798 0 812 0 l 432 0 q 413 18 413 0 l 413 371 q 345 450 413 415 q 237 352 270 352 q 215 347 227 347 l 204 347 q 55 455 130 347 q 42 515 42 488 l 42 596 q 88 708 42 661 q 210 773 153 773 q 337 675 273 773 q 348 670 344 670 q 413 746 413 704 l 413 1098 q 435 1120 413 1120 l 793 1120 q 858 1174 822 1120 l 864 1188 q 760 1313 760 1259 l 760 1337 q 812 1432 760 1372 q 950 1492 864 1492 "},"P":{"x_min":0,"x_max":1489.375,"ha":1620,"o":"m 537 1866 l 583 1866 q 770 1719 712 1866 l 770 1695 q 670 1565 770 1630 l 670 1559 q 756 1492 697 1492 l 1098 1492 q 1117 1473 1117 1492 l 1117 1123 q 1188 1044 1117 1072 q 1285 1139 1250 1129 q 1326 1147 1303 1144 q 1462 1058 1388 1147 q 1489 976 1489 1021 l 1489 889 q 1359 727 1489 790 q 1334 721 1341 721 l 1321 721 q 1190 819 1258 721 l 1185 822 q 1123 767 1159 822 q 1117 746 1117 757 l 1117 393 q 1098 374 1117 374 l 746 374 q 670 309 703 374 l 670 306 q 729 255 670 302 q 770 181 764 221 l 770 162 q 672 21 770 95 q 561 0 636 0 l 550 0 q 382 81 434 0 q 347 154 347 125 l 347 173 q 444 301 347 236 l 447 306 q 363 374 419 374 l 18 374 q 0 393 0 374 l 0 1473 q 18 1492 0 1492 l 360 1492 q 447 1559 419 1492 l 447 1562 q 347 1687 347 1635 l 347 1711 q 434 1839 358 1778 q 537 1866 476 1866 "},"∏":{"x_min":0,"x_max":0,"ha":1028},"À":{"x_min":0,"x_max":0,"ha":1044},"_":{"x_min":0,"x_max":0,"ha":695},"ñ":{"x_min":0,"x_max":0,"ha":751},"+":{"x_min":59,"x_max":1928.1875,"ha":2007,"o":"m 973 1492 l 1013 1492 q 1203 1345 1152 1492 q 1206 1321 1206 1335 q 1119 1201 1206 1261 q 1103 1185 1103 1188 q 1174 1120 1140 1120 l 1532 1120 q 1553 1096 1553 1120 l 1553 737 q 1597 680 1558 710 q 1621 670 1612 670 q 1732 767 1695 767 q 1762 773 1732 771 q 1909 667 1831 773 q 1928 561 1928 620 q 1852 387 1928 440 q 1762 347 1803 347 l 1757 347 q 1621 450 1691 347 q 1553 377 1553 417 l 1553 21 q 1532 0 1553 0 l 1168 0 q 1073 73 1121 0 q 1065 100 1065 87 l 1065 113 q 1141 189 1065 130 q 1168 244 1163 212 q 1111 336 1168 278 q 994 374 1075 374 q 859 320 899 374 q 818 244 818 274 q 908 138 818 200 q 921 111 921 122 l 921 100 q 845 8 921 53 q 818 0 832 0 l 455 0 q 433 21 433 0 l 433 374 q 365 450 433 417 q 240 347 293 351 l 219 347 q 91 431 165 347 q 59 564 59 467 q 126 724 59 675 q 229 773 181 773 q 362 670 294 773 l 368 670 q 433 740 433 706 l 433 1098 q 455 1120 433 1120 l 813 1120 q 878 1174 841 1120 q 883 1188 883 1183 q 780 1315 780 1259 l 780 1329 q 889 1475 780 1403 q 973 1492 921 1492 "},"‚":{"x_min":0,"x_max":0,"ha":378},"½":{"x_min":0,"x_max":0,"ha":1332},"Æ":{"x_min":0,"x_max":0,"ha":1436},"₣":{"x_min":0,"x_max":0,"ha":688},"Ë":{"x_min":0,"x_max":0,"ha":781},"'":{"x_min":68.5,"x_max":1560.59375,"ha":1701,"o":"m 977 1492 l 1023 1492 q 1213 1342 1159 1492 l 1213 1313 q 1175 1239 1210 1277 q 1112 1185 1112 1189 q 1169 1123 1112 1157 q 1191 1117 1180 1117 l 1541 1117 q 1560 1098 1560 1117 l 1560 727 q 1487 637 1560 688 q 1452 629 1464 629 q 1373 705 1430 629 q 1319 735 1356 725 q 1186 558 1186 696 q 1262 409 1186 454 q 1316 385 1294 385 l 1319 385 q 1424 474 1359 385 q 1452 488 1440 488 q 1560 396 1517 488 l 1560 18 q 1541 0 1560 0 l 461 0 q 442 18 442 0 l 442 363 q 375 447 442 419 q 312 374 372 447 q 247 347 267 347 l 231 347 q 84 455 156 347 q 68 545 68 491 l 68 561 q 128 716 68 674 q 236 773 183 773 q 356 689 301 773 q 375 670 372 670 q 437 724 400 670 q 442 748 442 741 l 442 1098 q 461 1117 442 1117 l 806 1117 q 890 1185 862 1117 l 890 1190 q 790 1321 790 1256 l 790 1329 q 885 1467 790 1397 q 977 1492 918 1492 "},"ª":{"x_min":0,"x_max":0,"ha":439},"˛":{"x_min":0,"x_max":0,"ha":695},"ð":{"x_min":0,"x_max":0,"ha":773},"T":{"x_min":0,"x_max":1120.421875,"ha":1236,"o":"m 21 1494 l 1098 1494 q 1120 1473 1120 1494 l 1120 1112 q 1047 1014 1120 1062 q 1020 1006 1033 1006 l 1006 1006 q 927 1087 987 1006 q 876 1109 893 1109 q 765 1028 828 1109 q 746 933 746 996 q 811 792 746 834 q 878 759 851 759 q 976 843 917 759 q 1006 862 995 862 l 1017 862 q 1109 792 1064 862 q 1120 751 1120 774 l 1120 396 q 1098 374 1120 374 l 740 374 q 670 306 704 374 q 770 187 770 234 q 773 170 773 187 l 773 165 q 694 37 773 104 q 561 0 653 0 q 398 65 445 0 q 347 165 349 120 q 436 293 347 235 q 450 311 450 307 q 377 374 413 374 l 21 374 q 0 396 0 374 l 0 743 q 97 862 0 825 l 113 862 q 195 781 132 862 q 246 759 227 759 q 352 832 285 759 q 374 922 374 867 l 374 946 q 295 1087 374 1042 q 241 1109 267 1109 q 135 1014 203 1109 q 113 1006 119 1006 l 103 1006 q 5 1087 53 1006 q 0 1125 0 1108 l 0 1473 q 21 1494 0 1494 "},"Þ":{"x_min":0,"x_max":0,"ha":760},"j":{"x_min":0,"x_max":1117.71875,"ha":1236,"o":"m 556 1492 l 572 1492 q 729 1418 675 1492 q 770 1329 770 1368 l 770 1313 q 672 1190 770 1259 l 670 1185 q 724 1123 670 1159 q 746 1117 734 1117 l 1098 1117 q 1117 1098 1117 1117 l 1117 18 q 1098 0 1117 0 l 18 0 q 0 18 0 0 l 0 385 q 70 477 0 431 q 111 488 90 488 q 192 406 128 488 q 241 382 208 391 q 349 458 286 382 q 374 558 374 493 q 320 691 374 649 q 244 732 271 732 l 241 732 q 141 648 200 732 q 105 629 122 629 q 37 661 78 629 q 0 729 0 705 l 0 1098 q 18 1117 0 1117 l 377 1117 q 447 1180 408 1117 l 447 1185 l 374 1250 q 347 1313 347 1289 l 347 1329 q 455 1475 347 1403 q 556 1492 486 1492 "},"1":{"x_min":0,"x_max":0,"ha":688},"›":{"x_min":0,"x_max":0,"ha":428},"ı":{"x_min":0,"x_max":0,"ha":349},"ä":{"x_min":0,"x_max":0,"ha":625},"<":{"x_min":0,"x_max":0,"ha":688},"£":{"x_min":0,"x_max":0,"ha":688},"¹":{"x_min":0,"x_max":0,"ha":688},"t":{"x_min":0,"x_max":1866.46875,"ha":1986,"o":"m 393 1494 l 1473 1494 q 1492 1475 1492 1494 l 1492 1123 q 1559 1044 1492 1077 q 1562 1047 1562 1044 q 1663 1142 1627 1131 q 1698 1147 1687 1147 l 1700 1147 q 1833 1063 1763 1147 q 1866 941 1866 1023 l 1866 933 q 1795 767 1866 813 q 1698 721 1747 721 q 1562 824 1630 721 l 1557 824 q 1492 746 1492 790 l 1492 396 q 1470 374 1492 374 l 1117 374 q 1044 311 1077 374 l 1044 306 q 1115 246 1044 303 q 1144 179 1144 202 l 1144 157 q 1058 29 1132 88 q 930 0 1013 0 q 792 43 836 0 q 718 170 718 110 q 811 295 718 232 l 822 306 q 756 374 822 339 l 393 374 q 374 393 374 374 l 374 732 q 303 824 374 797 q 192 727 233 727 q 165 721 192 721 q 16 830 89 721 q 0 914 0 863 l 0 954 q 92 1120 0 1062 q 165 1147 132 1147 l 168 1147 q 290 1060 233 1147 q 306 1044 303 1044 q 374 1133 374 1076 l 374 1475 q 393 1494 374 1494 "},"¬":{"x_min":0,"x_max":0,"ha":688},"ù":{"x_min":0,"x_max":0,"ha":718},"W":{"x_min":0,"x_max":1120.421875,"ha":1377,"o":"m 21 1120 l 377 1120 q 488 1028 445 1120 l 488 1006 q 412 930 488 986 q 385 873 385 900 q 458 770 403 810 q 553 746 491 746 l 569 746 q 697 803 655 746 q 735 878 735 846 q 642 984 735 916 q 632 1009 632 999 l 632 1017 q 697 1106 632 1059 q 737 1120 722 1120 l 1098 1120 q 1120 1098 1120 1120 l 1120 18 q 1101 0 1120 0 l 21 0 q 0 21 0 0 l 0 385 q 75 480 0 434 q 103 488 90 488 l 111 488 q 189 412 132 488 q 246 385 220 385 q 349 455 284 385 q 374 561 374 489 l 374 567 q 244 735 374 696 q 138 642 201 735 q 113 632 122 632 l 103 632 q 5 710 52 632 q 0 735 0 728 l 0 1098 q 21 1120 0 1120 "},"ï":{"x_min":0,"x_max":0,"ha":349},">":{"x_min":0,"x_max":0,"ha":688},"v":{"x_min":0,"x_max":1492.09375,"ha":1632,"o":"m 393 1120 l 748 1120 q 859 1030 816 1120 l 862 1006 q 775 922 862 990 q 759 881 759 890 l 759 873 q 851 756 759 822 q 925 746 885 746 l 933 746 q 1066 800 1030 746 q 1106 873 1104 838 l 1106 878 q 1014 984 1106 920 q 1003 1009 1003 1001 l 1003 1014 q 1082 1112 1003 1066 q 1117 1120 1096 1120 l 1473 1120 q 1492 1101 1492 1120 l 1492 21 q 1470 0 1492 0 l 1125 0 q 1006 92 1045 0 q 1003 105 1003 96 l 1003 111 q 1079 187 1003 134 q 1106 241 1106 218 l 1106 246 q 1041 344 1106 287 q 938 374 1010 374 l 933 374 q 794 314 832 374 q 759 244 759 276 q 843 143 759 198 q 862 108 862 124 q 827 37 862 80 q 740 0 788 0 l 396 0 q 374 21 374 0 l 374 371 q 311 447 374 415 q 303 450 306 450 q 195 352 233 352 q 162 347 195 347 q 24 442 97 347 q 0 550 0 479 l 0 577 q 138 767 0 713 q 168 773 149 773 q 290 686 232 773 q 306 670 303 670 q 374 748 374 703 l 374 1101 q 393 1120 374 1120 "},"û":{"x_min":0,"x_max":0,"ha":718},"Ò":{"x_min":0,"x_max":0,"ha":1095},"&":{"x_min":103.09375,"x_max":1597.890625,"ha":1727,"o":"m 1011 1863 l 1060 1863 q 1245 1728 1188 1863 q 1250 1698 1250 1717 l 1250 1695 q 1166 1576 1250 1631 q 1147 1557 1147 1559 q 1220 1492 1181 1492 l 1576 1492 q 1597 1470 1597 1492 l 1597 390 q 1578 371 1597 371 l 1226 371 q 1147 303 1180 371 q 1242 200 1242 229 q 1250 165 1250 192 l 1250 162 q 1144 16 1250 87 q 1079 0 1114 0 l 995 0 q 827 138 891 0 l 824 165 q 916 293 824 230 q 927 306 927 300 q 854 371 891 371 l 499 371 q 477 393 477 371 l 477 751 q 423 816 477 779 l 409 822 q 282 718 337 718 l 268 718 q 127 816 198 718 q 103 930 103 855 q 149 1074 103 1030 q 274 1144 215 1144 q 401 1049 335 1144 q 415 1041 410 1041 q 477 1112 477 1080 l 477 1470 q 501 1492 477 1492 l 854 1492 q 925 1551 892 1492 q 927 1559 927 1557 q 827 1682 827 1631 q 824 1698 824 1682 q 933 1847 824 1774 q 1011 1863 967 1863 "},"˝":{"x_min":0,"x_max":0,"ha":695},"Ð":{"x_min":0,"x_max":0,"ha":1030},"I":{"x_min":0,"x_max":1492.09375,"ha":1593,"o":"m 18 1117 l 387 1117 q 482 1039 434 1117 q 488 1006 488 1020 q 406 925 488 989 q 382 876 392 910 q 455 770 401 807 q 558 743 491 743 q 699 808 657 743 q 732 873 728 838 l 732 876 q 648 976 732 918 q 629 1011 629 995 q 702 1109 629 1062 q 729 1117 716 1117 l 1098 1117 q 1117 1098 1117 1117 l 1117 746 q 1182 670 1117 704 l 1188 670 q 1313 770 1259 770 l 1337 770 q 1462 683 1390 770 q 1492 569 1492 649 l 1492 542 q 1351 349 1492 404 q 1329 347 1340 347 l 1321 347 q 1193 442 1258 347 l 1185 447 q 1123 393 1159 447 q 1117 371 1117 383 l 1117 18 q 1098 0 1117 0 l 740 0 q 634 84 677 0 q 629 108 629 96 q 697 179 629 134 q 732 241 732 213 l 732 246 q 640 363 732 296 q 556 374 605 371 q 387 260 433 374 q 385 246 385 255 l 385 241 q 461 149 385 199 q 488 108 488 126 l 488 105 q 417 10 488 59 q 377 0 400 0 l 18 0 q 0 18 0 0 l 0 1098 q 18 1117 0 1117 "},"ˉ":{"x_min":0,"x_max":0,"ha":695},"G":{"x_min":0,"x_max":1120.421875,"ha":1247,"o":"m 10 1489 l 396 1489 q 477 1421 432 1489 q 488 1380 488 1403 q 404 1296 488 1361 q 385 1247 385 1264 q 466 1136 385 1199 q 564 1117 495 1117 q 710 1196 666 1117 q 735 1247 724 1205 q 653 1345 735 1289 q 629 1383 629 1370 q 710 1486 629 1439 q 721 1489 715 1489 l 1109 1489 q 1117 1473 1117 1486 l 1117 1144 q 1120 1101 1117 1129 q 1063 1022 1120 1072 q 1014 1003 1033 1003 l 1009 1003 q 935 1074 986 1003 q 870 1106 904 1106 q 746 941 746 1064 l 746 925 q 781 816 746 851 q 873 756 823 769 q 984 851 918 756 q 1006 859 998 859 l 1020 859 q 1112 786 1064 859 q 1120 765 1117 765 q 1117 718 1117 733 l 1117 390 q 1098 371 1117 371 l 743 371 q 670 306 701 371 l 670 303 q 770 187 770 229 q 773 165 773 177 q 667 18 773 90 q 580 0 636 0 l 539 0 q 347 149 400 0 l 347 170 q 447 301 347 236 l 447 306 q 387 371 447 334 l 21 371 q 0 393 0 371 l 0 1470 q 10 1489 0 1485 "},"`":{"x_min":0,"x_max":0,"ha":695},"·":{"x_min":0,"x_max":0,"ha":345},"r":{"x_min":0,"x_max":1492.09375,"ha":1603,"o":"m 390 1494 l 1473 1494 q 1492 1475 1492 1494 l 1492 1109 q 1421 1017 1492 1063 q 1380 1006 1403 1006 q 1302 1085 1357 1006 q 1242 1109 1269 1109 q 1136 1030 1188 1097 q 1117 933 1117 999 l 1117 930 q 1177 797 1117 837 q 1247 759 1209 765 q 1348 843 1289 759 q 1378 862 1367 862 l 1391 862 q 1483 789 1436 862 q 1492 759 1492 768 l 1492 396 q 1470 374 1492 374 l 1115 374 q 1041 306 1074 374 q 1144 170 1144 236 l 1144 162 q 1066 37 1144 110 q 933 0 1024 0 q 767 67 815 0 q 718 170 718 123 q 754 246 735 246 q 822 306 765 261 l 822 309 q 748 374 788 374 l 393 374 q 371 396 371 374 l 371 754 q 309 824 371 786 l 303 824 q 181 724 231 724 q 165 721 181 721 q 32 805 101 721 q 0 911 0 843 l 0 957 q 84 1115 0 1058 q 162 1147 126 1147 l 176 1147 q 303 1044 232 1147 q 371 1106 330 1044 l 371 1475 q 390 1494 371 1494 "},"₤":{"x_min":0,"x_max":0,"ha":688},"¿":{"x_min":0,"x_max":0,"ha":507},"ý":{"x_min":0,"x_max":0,"ha":589},"x":{"x_min":0,"x_max":1494.796875,"ha":1607,"o":"m 393 1120 l 762 1120 q 854 1047 807 1120 q 862 1020 862 1033 l 862 1006 q 786 930 862 988 q 759 876 764 908 q 827 775 759 836 q 938 746 857 746 q 1085 822 1039 746 q 1109 876 1109 857 q 1020 982 1109 918 q 1006 1009 1006 997 l 1006 1017 q 1085 1115 1006 1068 q 1106 1120 1095 1120 l 1473 1120 q 1494 1098 1494 1120 l 1494 737 q 1416 637 1494 685 q 1391 632 1398 632 l 1380 632 q 1304 708 1363 632 q 1250 735 1275 735 q 1131 640 1195 735 q 1120 558 1120 607 q 1174 425 1120 466 q 1250 385 1216 390 q 1351 469 1292 385 q 1380 488 1370 488 l 1394 488 q 1481 423 1435 488 q 1494 377 1494 401 l 1494 21 q 1473 0 1494 0 l 396 0 q 374 21 374 0 l 374 374 q 314 447 374 414 q 306 450 309 450 q 184 349 234 349 q 168 347 184 347 q 32 434 103 347 q 0 561 0 474 q 86 740 0 685 q 165 773 128 773 l 179 773 q 303 672 234 773 l 309 670 q 374 746 374 704 l 374 1101 q 393 1120 374 1120 "},"è":{"x_min":0,"x_max":0,"ha":617},"º":{"x_min":0,"x_max":0,"ha":487},"Ø":{"x_min":0,"x_max":0,"ha":1095},"∞":{"x_min":0,"x_max":0,"ha":688},"÷":{"x_min":0,"x_max":0,"ha":688},"h":{"x_min":0,"x_max":1117.71875,"ha":1240,"o":"m 539 1492 l 580 1492 q 767 1353 712 1492 q 773 1323 770 1348 q 678 1196 773 1258 q 670 1182 670 1187 q 748 1117 704 1117 l 1098 1117 q 1117 1098 1117 1117 l 1117 732 q 1085 670 1117 706 q 1022 632 1045 632 l 1006 632 q 952 680 984 632 q 881 732 910 732 l 870 732 q 759 645 821 732 q 746 572 746 620 l 746 542 q 822 406 746 455 q 873 385 850 385 l 876 385 q 971 463 918 385 q 1009 488 990 488 l 1014 488 q 1112 412 1061 488 q 1117 385 1117 390 l 1117 18 q 1098 0 1117 0 l 18 0 q 0 18 0 0 l 0 385 q 73 480 0 431 q 103 488 94 488 l 111 488 q 187 412 132 488 q 238 385 215 387 l 244 385 q 363 480 299 385 q 374 558 374 523 q 317 694 374 654 q 246 732 279 730 l 241 732 q 143 651 200 732 q 113 632 124 632 l 100 632 q 13 694 61 632 q 0 732 0 718 l 0 1098 q 18 1117 0 1117 l 363 1117 q 450 1188 419 1117 q 347 1315 347 1258 l 347 1334 q 439 1467 347 1391 q 539 1492 480 1492 "},".":{"x_min":0,"x_max":0,"ha":378},";":{"x_min":0,"x_max":0,"ha":378},"f":{"x_min":0,"x_max":1117.71875,"ha":1224,"o":"m 539 1492 l 580 1492 q 770 1348 715 1492 q 773 1326 773 1333 q 689 1204 773 1258 q 670 1185 670 1188 q 743 1120 702 1120 l 1096 1120 q 1117 1098 1117 1120 l 1117 18 q 1098 0 1117 0 l 732 0 q 648 59 693 0 q 632 100 632 83 l 632 111 q 699 181 632 132 q 735 244 733 215 q 689 325 729 282 q 558 374 649 374 q 425 320 467 374 q 385 244 385 274 q 474 138 385 198 q 488 111 488 120 l 488 108 q 393 0 488 41 l 18 0 q 0 18 0 0 l 0 387 q 65 474 0 428 q 111 488 86 488 q 192 406 132 488 q 244 385 221 386 q 336 442 281 385 q 374 556 374 480 q 317 694 374 656 q 244 735 297 719 q 143 651 202 735 q 113 632 124 632 l 94 632 q 13 694 63 632 q 0 732 0 716 l 0 1098 q 21 1120 0 1120 l 377 1120 q 450 1188 417 1120 q 347 1315 347 1258 l 347 1329 q 455 1475 347 1403 q 539 1492 488 1492 "},"“":{"x_min":0,"x_max":0,"ha":617},"A":{"x_min":0,"x_max":1117.71875,"ha":1219,"o":"m 8 1117 l 1109 1117 q 1117 1101 1117 1115 l 1117 727 q 1055 645 1108 685 q 1014 632 1025 632 l 1006 632 q 922 716 986 632 q 873 735 891 735 q 781 678 838 735 q 743 561 743 639 q 778 447 743 484 q 873 385 838 385 q 976 472 915 385 q 1003 488 992 488 l 1022 488 q 1109 420 1058 488 q 1117 390 1117 399 l 1117 21 q 1096 0 1117 0 l 746 0 q 632 89 674 0 l 629 105 l 629 111 q 697 181 629 133 q 732 244 732 215 l 732 246 q 653 355 732 291 q 569 374 626 374 l 545 374 q 409 301 453 374 q 385 244 385 274 q 444 162 385 203 q 485 113 485 132 l 485 100 q 415 10 485 54 q 368 0 398 0 l 18 0 q 0 18 0 0 l 0 1101 q 8 1117 2 1117 "},"6":{"x_min":0,"x_max":0,"ha":688},"‘":{"x_min":0,"x_max":0,"ha":378},"O":{"x_min":0,"x_max":1494.796875,"ha":1603,"o":"m 539 1492 l 580 1492 q 767 1353 712 1492 q 773 1323 773 1342 q 678 1196 773 1257 q 670 1182 670 1187 q 743 1120 704 1120 l 1096 1120 q 1117 1098 1117 1120 l 1117 756 q 1188 670 1117 697 q 1313 770 1261 770 l 1326 773 q 1462 686 1389 773 q 1494 558 1494 645 q 1426 396 1494 444 q 1334 347 1372 347 l 1323 347 q 1199 436 1258 347 q 1188 450 1197 436 q 1117 360 1117 419 l 1117 18 q 1098 0 1117 0 l 732 0 q 640 70 690 0 q 629 113 629 95 q 699 181 631 130 q 735 244 731 211 q 667 344 726 295 q 556 374 636 374 q 444 339 478 374 q 385 244 385 282 q 477 135 385 199 q 488 105 488 117 q 409 5 488 52 q 385 0 392 0 l 18 0 q 0 18 0 0 l 0 1101 q 18 1120 0 1120 l 377 1120 q 447 1182 414 1120 l 447 1188 q 352 1296 352 1260 q 347 1315 347 1296 l 347 1329 q 444 1470 347 1397 q 539 1492 480 1492 "},"n":{"x_min":0,"x_max":1489.375,"ha":1599,"o":"m 537 1866 l 580 1866 q 767 1725 712 1866 q 770 1703 770 1715 l 770 1695 q 670 1565 770 1630 l 670 1559 q 756 1492 698 1492 l 1098 1492 q 1117 1473 1117 1492 l 1117 1131 q 1188 1044 1117 1070 q 1326 1147 1256 1147 q 1464 1055 1391 1147 q 1489 976 1489 1018 l 1489 889 q 1416 759 1489 821 q 1329 721 1367 721 l 1313 721 q 1190 819 1260 721 l 1185 822 q 1123 765 1156 822 q 1117 743 1117 754 l 1117 393 q 1098 374 1117 374 l 746 374 q 670 309 703 374 l 670 306 l 743 241 q 770 179 770 202 l 770 162 q 667 18 770 91 q 561 0 633 0 l 556 0 q 385 78 432 0 q 347 162 347 120 l 347 179 q 444 301 347 232 l 447 306 q 396 368 447 330 q 371 374 378 374 l 18 374 q 0 393 0 374 l 0 762 q 81 857 0 811 q 111 862 92 862 q 192 781 128 862 q 238 759 224 759 l 244 759 q 336 816 280 759 q 374 933 374 853 q 260 1104 374 1059 l 244 1109 q 141 1022 200 1109 q 105 1003 122 1003 q 5 1085 51 1003 q 0 1106 0 1095 l 0 1473 q 18 1492 0 1492 l 360 1492 q 447 1562 421 1492 q 352 1668 352 1635 q 347 1687 347 1668 l 347 1711 q 434 1839 347 1762 q 537 1866 475 1866 "},"3":{"x_min":0,"x_max":0,"ha":688},"9":{"x_min":0,"x_max":0,"ha":688},"l":{"x_min":0,"x_max":1492.09375,"ha":1611,"o":"m 537 1492 l 577 1492 q 770 1340 718 1492 l 770 1321 q 670 1190 770 1256 l 670 1185 q 732 1120 670 1154 q 754 1117 743 1117 l 1098 1117 q 1117 1098 1117 1117 l 1117 748 q 1182 670 1117 703 l 1185 670 q 1245 740 1188 670 q 1326 773 1288 773 q 1470 672 1393 773 q 1492 558 1492 634 l 1492 553 q 1410 382 1492 433 q 1337 347 1365 347 l 1318 347 q 1190 444 1255 347 l 1185 447 q 1117 363 1117 419 l 1117 18 q 1098 0 1117 0 l 18 0 q 0 18 0 0 l 0 387 q 84 485 0 437 q 113 488 107 488 q 187 412 127 488 q 241 385 217 385 l 244 385 q 336 442 281 385 q 374 558 374 479 q 257 729 374 686 q 244 735 244 732 q 141 648 202 735 q 105 629 122 629 q 2 713 50 629 l 0 727 l 0 1098 q 18 1117 0 1117 l 368 1117 q 447 1188 419 1117 q 347 1310 347 1262 l 347 1337 q 398 1432 352 1380 q 537 1492 450 1492 "},"¤":{"x_min":0,"x_max":0,"ha":688},"":{"x_min":0,"x_max":0,"ha":728},"∂":{"x_min":0,"x_max":0,"ha":688},"4":{"x_min":0,"x_max":0,"ha":688},"p":{"x_min":0,"x_max":1494.796875,"ha":1603,"o":"m 396 1494 l 1475 1494 q 1494 1475 1494 1494 l 1494 396 q 1473 374 1494 374 l 1115 374 q 1049 320 1086 374 q 1044 306 1044 311 q 1144 184 1144 234 q 1147 168 1147 184 q 1041 18 1147 93 q 935 0 998 0 q 770 67 817 0 q 721 170 721 120 q 822 303 721 233 l 824 309 q 754 374 788 374 l 396 374 q 374 396 374 374 l 374 751 q 306 824 374 792 q 184 721 238 729 l 168 721 q 24 819 96 721 q 0 933 0 860 q 73 1104 0 1053 q 168 1147 123 1147 l 176 1147 q 290 1063 231 1147 q 309 1044 306 1044 q 374 1115 374 1081 l 374 1473 q 396 1494 374 1494 "},"‡":{"x_min":0,"x_max":0,"ha":688},"à":{"x_min":0,"x_max":0,"ha":625},"Ü":{"x_min":0,"x_max":0,"ha":1018},"ó":{"x_min":0,"x_max":0,"ha":685},"√":{"x_min":0,"x_max":0,"ha":688}}}
